<svg xmlns="http://www.w3.org/2000/svg" width="35" height="46" viewBox="0 0 35 46">
    <g fill="none" fill-rule="evenodd">
        <path fill="#AA9685" fill-rule="nonzero" d="M35 46H0V0h24.063L35 10.952z"/>
        <path fill="#968678" fill-rule="nonzero" d="M33.448 12.69H23.333V2.668z"/>
        <path fill="#FFF" d="M9.415 29.12V32H7.73v-8.176h3.19c.613 0 1.153.113 1.62.337.465.225.824.544 1.075.958.25.413.376.884.376 1.412 0 .8-.274 1.433-.823 1.895-.548.462-1.307.693-2.277.693H9.415zm0-1.365h1.504c.446 0 .786-.105 1.02-.315.234-.21.35-.509.35-.898 0-.4-.117-.724-.353-.971-.236-.248-.562-.375-.977-.382H9.415v2.566zM15.048 32v-8.176h2.515c.72 0 1.362.162 1.93.486.566.324 1.009.784 1.327 1.381.318.597.477 1.276.477 2.036v.376c0 .76-.156 1.436-.468 2.027a3.358 3.358 0 0 1-1.323 1.376c-.569.326-1.21.49-1.926.494h-2.532zm1.684-6.811v5.458h.814c.66 0 1.163-.216 1.511-.646.348-.43.526-1.046.533-1.847v-.433c0-.83-.172-1.46-.516-1.89-.345-.428-.848-.642-1.51-.642h-.832zm10.609 3.47h-3.235V32h-1.684v-8.176h5.323v1.365h-3.639V27.3h3.235v1.359z"/>
    </g>
</svg>
